<svg xmlns="http://www.w3.org/2000/svg" viewBox="0 0 256 256" xmlns:v="https://vecta.io/nano"><path d="M231.4 67.6a121.84 121.84 0 0 0-18.8-23.9c-7.7-7.6-15.9-13.8-24.3-18.8L203.1 10s21.5 0 32.2 10.7C246 31.5 246 52.9 246 52.9l-14.6 14.7h0zm-132.2 134H54.4v-44.8l5.4-5.4c9.1 4.3 18.2 10.4 26.3 18.5 8.2 8.1 14.2 17.2 18.5 26.3l-5.4 5.4h0zM219 80L117.6 183.3c-5.2-8.7-11.7-17.1-19.6-25-8-7.9-16.6-14.4-25.4-19.7L176.1 37c8.7 4.1 17.4 9.9 25.2 17.7 7.8 7.9 13.6 16.5 17.7 25.3h0zM39.5 39.5v177h177v-73.7l29.5-29.5v111.3c0 11.8-9.6 21.5-21.5 21.5h-193c-11.8 0-21.5-9.6-21.5-21.5V31.5A21.47 21.47 0 0 1 31.5 10h111.3l-29.5 29.5H39.5h0z"/></svg>