<svg xmlns="http://www.w3.org/2000/svg" width="980" height="791" xmlns:v="https://vecta.io/nano"><path d="M514 17c6.031 7.359 10.42 14.8 13 24l.533 1.81c.549 2.576.589 4.934.587 7.568l.004 3.306-.011 3.612v3.815l-.013 10.344-.008 10.814-.021 20.474-.022 23.311L528 174l3.19.186c7.233.43 14.446.861 21.638 1.76l2.257.274 7.165.906 2.533.325c18.241 2.367 36.253 5.605 54.217 9.55l2.063.453C661.36 196.358 700.127 210.515 737 229l2.829 1.411C752.716 236.872 764.985 244.037 777 252l2.104 1.39C794.889 263.88 809.817 275.434 824 288l2.762 2.422c6.516 5.838 12.75 11.964 18.96 18.125l4.274 4.223c6.108 6.1 11.616 12.494 17.004 19.231l2.828 3.285C881.937 349.171 892.249 364.394 902 380l1.138 1.812c2.713 4.344 5.316 8.745 7.862 13.188l1.428 2.492C934.291 435.988 949.895 477.217 961 520l.511 1.966c6.796 26.294 11.402 53.034 14.739 79.971l.458 3.648c2.757 23.515 3.626 46.982 3.553 70.634l.007 11.192c.181 69.556.181 69.556-18.268 88.589-14.298 12.805-28.934 15.829-47.436 15.175-13.87-.946-24.596-8.805-34.177-18.257-6.057-7.405-9.669-15.593-13.012-24.48C856.586 720.751 842.826 694.806 825 671l-1.414-1.889c-5.659-7.501-11.663-14.576-18.09-21.427-2.127-2.286-4.167-4.613-6.184-6.996-2.816-3.242-5.847-6.036-9.125-8.805a124.75 124.75 0 0 1-4.437-4.016C771.395 614.274 754.942 603.099 738 593l-2.144-1.291c-58.896-35.149-128.23-47.321-195.803-50.232l-3.227-.14L529 541l.006 2.215.098 53.489.047 25.867.037 22.559.023 11.933.015 11.258.023 6.048c-.042 18.571-4.197 33.855-17.155 47.663-11.486 10.733-25.895 15.341-41.336 15.18-15.006-.842-26.556-7.106-38.098-16.32-4.176-3.33-8.477-6.483-12.785-9.641l-2.437-1.791-4.953-3.636-31.434-23.289-15.364-11.409-2.415-1.778-11.964-8.785-25.121-18.812c-6.222-4.764-12.477-9.45-18.883-13.963-5.069-3.584-10.032-7.303-14.992-11.037l-19.875-14.812-2.366-1.742-11.747-8.622-25.137-18.824c-6.222-4.764-12.477-9.45-18.883-13.963-5.069-3.584-10.032-7.303-14.992-11.037l-19.875-14.812-2.366-1.742-11.747-8.622-25.137-18.824c-6.222-4.764-12.477-9.45-18.883-13.963-5.069-3.584-10.032-7.303-14.992-11.037l-19.875-14.812-2.366-1.742-11.747-8.622-27.815-20.879c-4.995-3.82-10.042-7.533-15.197-11.133C14.697 411.279 4.108 399.813 0 382c-1.718-18.877 1.518-33.925 13.688-48.75 5.696-6.117 12.507-10.758 19.277-15.609C37.742 314.215 42.382 310.637 47 307c6.801-5.336 13.707-10.506 20.684-15.609L85.5 278l20.188-15.125c6.943-5.081 13.759-10.301 20.526-15.612 5.521-4.318 11.131-8.499 16.786-12.638 12.483-8.945 12.483-8.945 23.438-19.625 6.883-7.839 15.021-12.766 24.125-17.625 9.184-4.927 17.043-11.044 25.14-17.561 3.854-3.044 7.827-5.924 11.797-8.814 6.25-4.565 12.411-9.223 18.5-14 6.802-5.335 13.707-10.506 20.684-15.609L284.5 128l20.188-15.125A689.7 689.7 0 0 0 323 99c6.802-5.334 13.707-10.506 20.684-15.609L361.5 70l20.188-15.125A689.81 689.81 0 0 0 400 41c6.913-5.421 13.921-10.693 21.018-15.871l11.35-8.5C458.429-3.557 488.318-6.012 514 17zM413.484 169.5l-2.26 1.664L408.75 173l-2.568 1.898-21.323 16.124L367 204.375l-20.119 15.173-34.7 26.151-25.928 19.583-11.296 8.503-6.883 5.211c-12.983 9.883-12.983 9.883-19.766 13.43-2.166 1.477-3.722 2.955-5.535 4.832-3.857 3.954-8.098 7.103-12.586 10.305-6.489 4.701-12.888 9.485-19.187 14.438-6.799 5.333-13.701 10.502-20.675 15.603l-18.075 13.585L147 370c3.923 4.128 8.146 7.572 12.688 11l2.257 1.716c5.941 4.495 11.974 8.855 18.032 13.19 6.936 4.983 13.711 10.166 20.488 15.363 5.312 4.065 10.677 8.021 16.15 11.865 5.4 3.819 10.638 7.843 15.886 11.866 6.326 4.848 12.679 9.623 19.195 14.212 5.07 3.584 10.033 7.304 14.993 11.038l19.875 14.813 2.366 1.742 11.747 8.622 25.137 18.824c6.315 4.835 12.665 9.59 19.165 14.174 4.294 3.034 8.511 6.161 12.71 9.326l17.625 13.125 2.396 1.764 12.264 9.01 4.902 3.602 2.382 1.75a746.6 746.6 0 0 1 17.47 13.305c1.934 1.795 1.934 1.795 3.273 1.695l.018-3.291.218-30.848.111-15.855.117-15.328.034-5.821c.068-19.216 2.121-36.073 16.096-50.607C449.221 436.572 465.808 434.617 485 433l3.421-.29c13.052-.959 26.122-.954 39.204-.96l3.746-.002c75.699.065 152.507 13.63 221.629 45.252l3.156 1.437C786.329 492.275 815.097 509.163 841 530l8 6c1.262-3.787.535-5.18-.703-8.941l-1.205-3.668-1.342-3.953-.682-2.025c-15.11-44.692-37.549-87.218-69.794-121.956a237.53 237.53 0 0 1-5.898-6.645C763.429 381.99 756.928 375.812 750 370l-1.64-1.379C733.77 356.409 718.553 345.397 702 336l-2.424-1.39C643.217 302.449 579.188 288.195 515 283l-2.345-.198c-6.96-.573-13.914-.815-20.893-1.009l-4.014-.117-7.93-.196c-16.782-.453-32.825-3.836-45.506-15.667-10.278-11.054-15.317-24.561-15.518-39.552l-.03-1.953-.081-6.33-.063-4.413-.153-11.57-.161-11.825L418 167c-1.805 0-3.109 1.463-4.516 2.5z" fill="#020202"/><path d="M23 325l2 1-15 15c0-4.064 1.53-5.052 4.25-8l2.391-2.625c2.024-2.038 4.01-3.737 6.359-5.375z" fill="#656565"/><path d="M176 206l2 1-13 13-2-1c4.035-4.811 8.045-9.132 13-13z" fill="#686868"/></svg>