<svg xmlns="http://www.w3.org/2000/svg" fill="#000000" width="800" height="800" viewBox="0 0 547.596 547.596" xmlns:v="https://vecta.io/nano"><path d="M540.76 254.788L294.506 38.216c-11.475-10.098-30.064-10.098-41.386 0L6.943 254.788c-11.475 10.098-8.415 18.284 6.885 18.284h75.964v221.773c0 12.087 9.945 22.108 22.108 22.108h92.947V371.067c0-12.087 9.945-22.108 22.109-22.108h93.865a22.02 22.02 0 0 1 22.108 22.108v145.886h92.947c12.24 0 22.108-9.945 22.108-22.108v-221.85h75.965c15.072 0 18.132-8.109 6.811-18.207z"/></svg>