<svg xmlns="http://www.w3.org/2000/svg" width="800" height="800" viewBox="0 0 24 24" fill="none" xmlns:v="https://vecta.io/nano"><path d="M9 6a3 3 0 0 0-3-3H4a3 3 0 0 0-3 3v2a3 3 0 0 0 3 3h2a3 3 0 0 0 3-3V6zM7 6a1 1 0 0 0-1-1H4a1 1 0 0 0-1 1v2a1 1 0 0 0 1 1h2a1 1 0 0 0 1-1V6zm2 10a3 3 0 0 0-3-3H4a3 3 0 0 0-3 3v2a3 3 0 0 0 3 3h2a3 3 0 0 0 3-3v-2zm-2 0a1 1 0 0 0-1-1H4a1 1 0 0 0-1 1v2a1 1 0 0 0 1 1h2a1 1 0 0 0 1-1v-2z" fill-rule="evenodd" fill="#0f0f0f"/><use href="#B" fill="#0f0f0f"/><use href="#B" y="10" fill="#0f0f0f"/><defs ><path id="B" d="M11 7a1 1 0 0 1 1-1h10a1 1 0 1 1 0 2H12a1 1 0 0 1-1-1z"/></defs></svg>